PathFileType	4	(X/Y/Z)	27_2_103_p1_0-235_filt_butterworth.trc
DataRate	CameraRate	NumFrames	NumMarkers	Units	OrigDataRate	OrigDataStartFrame	OrigNumFrames
54.0	54.0	6	27	m	54.0	88	235
Frame#	Time	RHip			RKnee			RAnkle			RBigToe			RSmallToe			RHeel			LHip			LKnee			LAnkle			LBigToe			LSmallToe			LHeel			Neck			Head			Nose			RShoulder			RElbow			RWrist			RThumb			RIndex			RPinky			LShoulder			LElbow			LWrist			LThumb			LIndex			LPinky			
		X1	Y1	Z1	X2	Y2	Z2	X3	Y3	Z3	X4	Y4	Z4	X5	Y5	Z5	X6	Y6	Z6	X7	Y7	Z7	X8	Y8	Z8	X9	Y9	Z9	X10	Y10	Z10	X11	Y11	Z11	X12	Y12	Z12	X13	Y13	Z13	X14	Y14	Z14	X15	Y15	Z15	X16	Y16	Z16	X17	Y17	Z17	X18	Y18	Z18	X19	Y19	Z19	X20	Y20	Z20	X21	Y21	Z21	X22	Y22	Z22	X23	Y23	Z23	X24	Y24	Z24	X25	Y25	Z25	X26	Y26	Z26	X27	Y27	Z27	
88	1.6296296296296295	0.1293785789495466	0.7607629961474338	0.7798777218905144	0.1444850530985378	0.35779106478146816	0.7758196439697721	0.16264416128235262	-0.04762719204124681	0.8084637179933698	0.12245003365016946	-0.020475172941946743	0.5991761204545689	0.18376317326600106	-0.012185495851787687	0.6068854622349654	0.15356739496306843	-0.13173630122454338	0.8900362702158209	-0.07426021538901914	0.7481913745991229	0.81036478985742	-0.05305385906341177	0.34414106438481096	0.8047970240329183	-0.03870715542369217	-0.042695976530388285	0.8046744476630999	-0.03521200710068243	0.003064700485875177	0.5897917679893577	-0.0839380807862464	-0.034908077423407985	0.6587715040769505	-0.02780670844990276	-0.08692212910904976	0.8401482397181317	0.002280008178671523	1.2990431775012157	0.8078598478007611	-0.039546714099368614	1.5632123130688722	0.7276853339310171	-0.02531522484505062	1.4355323687531916	0.6536553398731898	0.1530196457878777	1.2324912710640534	0.7669885189044021	0.22444531868885406	0.9816432248764194	0.7787588197590036	0.25457890924842996	0.7783468290234685	0.6739998368931646	0.23932690614261348	0.6758293772389343	0.5867235959551745	0.26323112243385055	0.6499560797833981	0.5892561667503834	0.28125596195365765	0.6231851603594933	0.6837068369135406	-0.11813881910253807	1.2005428896737025	0.8260352769217555	-0.1716832446165504	0.9755400841922115	0.8257208365165131	-0.173842938475974	0.73651821464512	0.7781222064029863	-0.1392261900146358	0.6475660889868278	0.709714922100325	-0.15117337939355585	0.6257623698471482	0.7162837694271746	-0.18882982261856068	0.6152127664514768	0.7719086190766054	
89	1.648148148148148	0.12908649915451337	0.7601020804240053	0.7793207821756759	0.14471050742068153	0.35613965534460557	0.7768392092396433	0.16259187785200271	-0.047969459406766266	0.8085732319466458	0.12332196830204173	-0.02083251076579737	0.6000659030921979	0.18496345150028198	-0.010341002021912599	0.6056509300221165	0.15368639806410525	-0.13207526738678974	0.8900965109688898	-0.07490412774204568	0.7472823439193075	0.8120640921952371	-0.05308796211606664	0.34421938522519985	0.8050481582631064	-0.038286098850949475	-0.04359115850833156	0.8057672091218174	-0.03531891971980963	0.003146956565235476	0.5895227246387867	-0.08481565766689084	-0.03718557465697212	0.6619451810556513	-0.027384618835458265	-0.08752790881112116	0.841186138572118	0.0022833721194287504	1.2982093309315956	0.8079859742687492	-0.04242302965952722	1.5627638504580756	0.7318116220662536	-0.027114005342572054	1.43406408808319	0.6533804131368024	0.1533898001843451	1.2330225516576736	0.764860913524203	0.22224791510559122	0.9819482771926642	0.7755278873769409	0.24307944847082727	0.7754889432885392	0.6729011978788129	0.20628231294397467	0.675946765179271	0.5866319393719808	0.22605210836618547	0.645141651924946	0.5928043667435603	0.25201478516012227	0.6175274409159348	0.6784491323472097	-0.11690623927319306	1.1993939655752166	0.83014809811591	-0.17029239992788325	0.9742887967339694	0.8299484693447265	-0.17518388000067986	0.733258595222709	0.7838595272329122	-0.13886099120678108	0.6470058372121462	0.7108123451767456	-0.15234977050630807	0.622858297838873	0.7214332361988829	-0.18783060308141955	0.6124184108970077	0.7791224575666001	
90	1.6666666666666667	0.1288089948748273	0.7593443059369468	0.7788595169320316	0.14510081213082712	0.3543124003854574	0.7781423412613981	0.16260511049186646	-0.047999206115007215	0.808450610084793	0.1240473228978497	-0.02006638881006205	0.5999203742621383	0.18578526189330136	-0.009115661822303764	0.6053169312414413	0.1538042211290306	-0.13227825614895303	0.8901609741751728	-0.07554062602170337	0.7465000650972962	0.8136409478449682	-0.053110599515668544	0.34437789144535347	0.8053143441898182	-0.03786355064836502	-0.04442593900251879	0.8069122485134479	-0.03543876213098005	0.0033929086881704096	0.5889804602484691	-0.08556442245417953	-0.03912091257883007	0.6648195922494291	-0.026866362022215245	-0.08797449068581333	0.8419824572273906	0.0024797966155489445	1.2974481866516594	0.8080756410114288	-0.045101861850908184	1.562127447097167	0.7364375781981268	-0.02919607115253215	1.4328376025431095	0.6531589501234595	0.15381897046909676	1.233603611880844	0.7623195864571893	0.2195883089548072	0.9828362627998952	0.7725269805096722	0.23096105015088436	0.7718612873514884	0.6750516801127164	0.1759991511292602	0.6776125550600288	0.5887868860444723	0.19061174359458832	0.644223375979499	0.5965198154189953	0.220668656941507	0.6159136857473929	0.6703540588350496	-0.11591116941626753	1.198536226144112	0.8333955793908919	-0.16822884563451898	0.9731684915207691	0.8340233862257818	-0.17609568240186302	0.7310666905410246	0.7882007408236948	-0.13782541093142034	0.6461546008189117	0.7129319999303704	-0.15325188512181753	0.6192862517250098	0.7267885824596441	-0.18641506595239044	0.6102150833502986	0.7851794040981769	
91	1.6851851851851851	0.12856656553592127	0.7585446183635065	0.7786677044048083	0.14559426932614974	0.35252210495158803	0.7795908635264488	0.16267023895197905	-0.04778110481472257	0.8082113292572997	0.12446546298927286	-0.01845632811962386	0.5992402615423158	0.1859231795861852	-0.009210249799810416	0.6062297590840191	0.1539170741235611	-0.13233181713474929	0.8902256331509258	-0.07599522573448185	0.7459058445950904	0.8149279861523441	-0.053121906529843416	0.34463445248993413	0.8055986980074441	-0.03745411132919424	-0.045164231055614956	0.8080753646302294	-0.03553995720864304	0.0033369276924359176	0.5888281332732265	-0.08611346161412511	-0.0405441304135889	0.667126124634537	-0.026321499170471527	-0.08841000275055613	0.8426414645327904	0.0026742592195126065	1.296858875302095	0.8081178905449755	-0.04765864651987773	1.5612671748857145	0.7411088823967336	-0.031324142448502804	1.431797235718165	0.6529704406947415	0.15424303739535128	1.2341906850487268	0.7597880686061176	0.2167650358713056	0.9843282993589059	0.769361005854307	0.21939866396897384	0.767738630106843	0.6803662422853622	0.15054821857747344	0.6795997760970102	0.5935652209923643	0.1608602189090491	0.646096418446251	0.6004885800824139	0.1919187623014878	0.6182048428475303	0.6604493383223697	-0.11513154166168268	1.1979747967381802	0.8358802602400179	-0.16565327218867495	0.9722198826497989	0.8377335650808897	-0.17669129685655338	0.7299222192039455	0.791104279822848	-0.13621831906253276	0.645337242483082	0.7159639966586413	-0.15384593594513019	0.6162097204503623	0.731549423344052	-0.18470375396101507	0.6085098561262078	0.7902734891438521	
92	1.7037037037037035	0.12836686476574688	0.7578164613442896	0.7787529570766638	0.14606761940781318	0.35098421309394556	0.7809434799755559	0.16276903883638194	-0.04743334010587191	0.8079326219816674	0.12468876025352305	-0.016712940368060786	0.5989629562824237	0.18549121301423854	-0.01081874243569804	0.6085174840195832	0.15402280396443555	-0.13221861284045078	0.8902832410562989	-0.07618497833944567	0.7454889331121618	0.8158807449675446	-0.05312219954969523	0.3449984323867198	0.8059094601838241	-0.037061574469265106	-0.045814506838322486	0.8092327038551429	-0.035587252238673324	0.0023640452673861084	0.5899608351092372	-0.08640177990676637	-0.041306034970688445	0.6685383431447376	-0.025800006636236304	-0.08895317463528908	0.8433816045254565	0.002768774318469779	1.2965282358699448	0.8081084496212795	-0.05006324716617174	1.5602063254895466	0.7453027884189825	-0.03323491820145519	1.4307887530667587	0.6527949414665967	0.15458917525440147	1.2347849672413473	0.7577614627900642	0.21371460410802345	0.9863082718247387	0.7656201695896862	0.2093742143230214	0.7638027213611611	0.687368094106996	0.13073177326173127	0.6797149440635759	0.6015371648803888	0.1387729118831254	0.648439842881617	0.604718245065637	0.16983387380482423	0.6230079407176953	0.6501920837687811	-0.11450193491241215	1.1975837332129375	0.8378530796652972	-0.16286814996709054	0.9713899191381761	0.8410934951166174	-0.177191388347626	0.7295285858624339	0.7929288916678529	-0.13424770120530294	0.6448835353784098	0.7193462273684156	-0.15427108547064197	0.6147136821396676	0.7351389488157083	-0.1828561574065565	0.6071961399178905	0.7944980638332949	
93	1.7222222222222223	0.12824173033038078	0.7573100077336743	0.7789558011498866	0.14639888724022404	0.34985603990785297	0.7819933046877271	0.1628791585303297	-0.04706977078450238	0.8076197417700495	0.12501600912430494	-0.015763835086880326	0.5996964455365759	0.1848423358373566	-0.013700221022421397	0.6121959814891685	0.15412047742505355	-0.13191120082337937	0.8903263310406734	-0.07623197278767517	0.7451543024953045	0.8166530514022029	-0.0531153235304252	0.345443286432653	0.8062368563436619	-0.03667601668022492	-0.04644430097889417	0.8103745327685139	-0.03558077079304717	0.0005233645332412412	0.5923618086533768	-0.08644871652531158	-0.04145689838187655	0.6689392358292994	-0.02531432537498834	-0.08962424735929964	0.8443990399510186	0.0027888162965182366	1.2964684640512014	0.8080598781516886	-0.05216151905311276	1.5590762749431795	0.7484101021999772	-0.03462912821101532	1.4297327398486481	0.6526313409632443	0.15480263515233797	1.2353767559430364	0.7566170333935494	0.2103326130370294	0.9882991462388218	0.7612698326494665	0.20149913061578162	0.7609752310892643	0.6934510552644545	0.11714874475051298	0.676022308370514	0.6128395821273058	0.12488054339315449	0.6489591240733038	0.6091627993834728	0.15654426961325002	0.62786834730749	0.6416300284393395	-0.1139970475064401	1.197268667607918	0.8394122816098688	-0.16031835557075771	0.9706849070611263	0.8438363803576293	-0.17764552094470165	0.7294786831050007	0.794224958388239	-0.13221538122873902	0.6449218105497572	0.722480677137247	-0.1546294045110533	0.6149087368731729	0.737438552527353	-0.18111337646223447	0.6060434690390554	0.7980075840173351	
